<svg width="30" height="30" viewBox="0 0 30 30" fill="none" xmlns="http://www.w3.org/2000/svg">
<path d="M25.5 0H4.5C3.30653 0 2.16193 0.592632 1.31802 1.64752C0.474106 2.70242 0 4.13316 0 5.625V24.375C0 25.8668 0.474106 27.2976 1.31802 28.3525C2.16193 29.4074 3.30653 30 4.5 30H25.5C26.6935 30 27.8381 29.4074 28.682 28.3525C29.5259 27.2976 30 25.8668 30 24.375V5.625C30 4.13316 29.5259 2.70242 28.682 1.64752C27.8381 0.592632 26.6935 0 25.5 0ZM24.495 3.75L15 12.6562L5.505 3.75H24.495ZM25.5 26.25H4.5C4.10218 26.25 3.72064 26.0525 3.43934 25.7008C3.15804 25.3492 3 24.8723 3 24.375V6.09375L14.1 16.5C14.3596 16.7434 14.6754 16.875 15 16.875C15.3246 16.875 15.6404 16.7434 15.9 16.5L27 6.09375V24.375C27 24.8723 26.842 25.3492 26.5607 25.7008C26.2794 26.0525 25.8978 26.25 25.5 26.25Z" fill="white"/>
</svg>
