<svg width="59" height="59" viewBox="0 0 59 59" fill="none" xmlns="http://www.w3.org/2000/svg">
<path d="M17.5 12.5V37.5C17.5 40.275 15.275 42.5 12.5 42.5H10C8.625 42.5 7.5 41.375 7.5 40V32.5H2.5V40C2.5 44.15 5.85 47.5 10 47.5H12.5C18.025 47.5 22.5 43.025 22.5 37.5V12.5M57.5 33.45L54.425 30.375C53.5172 29.463 52.438 28.7396 51.2495 28.2462C50.0611 27.7528 48.7868 27.4992 47.5 27.5H42.5V32.5H47.5C48.75 32.5 50 33 50.875 33.9L51.75 34.775L48.75 36.5C47.6 37.15 46.325 37.5 45 37.5H42.5C41.1 37.5 40 36.4 40 35V15H35V24.525L33.45 22.8C31.75 20.925 29 20 26.475 20H25V25H26.475C28.075 25 29.6 25.625 30.725 26.775L35 31.025V35C35 37.8 32.8 40 30 40H25V45H30C33.425 45 36.25 43.25 37.925 40.6C38.5178 41.2118 39.2295 41.6959 40.0162 42.0226C40.803 42.3494 41.6482 42.5118 42.5 42.5H45C47.2 42.5 49.35 41.925 51.25 40.825L57.5 37.225V33.45Z" fill="white"/>
</svg>
