<svg width="40" height="40" viewBox="0 0 40 40" fill="none" xmlns="http://www.w3.org/2000/svg">
<g id="material-symbols:energy-savings-leaf-outline-rounded">
<path id="Vector" d="M20 35C18.2222 35 16.5417 34.7083 14.9583 34.125C13.375 33.5417 11.9444 32.7361 10.6667 31.7083L8.54167 33.8333C8.20833 34.1667 7.81944 34.3267 7.375 34.3133C6.93056 34.3 6.54167 34.1261 6.20833 33.7917C5.875 33.4583 5.70833 33.0628 5.70833 32.605C5.70833 32.1472 5.875 31.7511 6.20833 31.4167L8.29167 29.3333C7.26389 28.0556 6.45833 26.6183 5.875 25.0217C5.29167 23.425 5 21.7511 5 20C5 15.8333 6.46556 12.2917 9.39667 9.375C12.3278 6.45833 15.8622 5 20 5H31.6667C32.5833 5 33.3683 5.32667 34.0217 5.98C34.675 6.63333 35.0011 7.41778 35 8.33333V20C35 24.1389 33.5417 27.6739 30.625 30.605C27.7083 33.5361 24.1667 35.0011 20 35ZM20 31.6667C23.25 31.6667 26.0072 30.5278 28.2717 28.25C30.5361 25.9722 31.6678 23.2222 31.6667 20V8.33333H20C16.7778 8.33333 14.0278 9.46556 11.75 11.73C9.47222 13.9944 8.33333 16.7511 8.33333 20C8.33333 23.2222 9.47222 25.9722 11.75 28.25C14.0278 30.5278 16.7778 31.6667 20 31.6667ZM17.7917 28.125L26.4167 20.4167C26.6944 20.1667 26.7778 19.8683 26.6667 19.5217C26.5556 19.175 26.3056 18.9733 25.9167 18.9167L19.1667 18.25L23.2083 12.7083C23.3194 12.5694 23.3683 12.4239 23.355 12.2717C23.3417 12.1194 23.2789 11.9733 23.1667 11.8333C23.0278 11.6944 22.8678 11.625 22.6867 11.625C22.5056 11.625 22.3461 11.6944 22.2083 11.8333L13.625 19.5417C13.3472 19.7917 13.2639 20.0906 13.375 20.4383C13.4861 20.7861 13.7361 20.9872 14.125 21.0417L20.875 21.7083L16.7917 27.25C16.7083 27.3889 16.6667 27.535 16.6667 27.6883C16.6667 27.8417 16.7361 27.9872 16.875 28.125C17.0139 28.2639 17.1667 28.3333 17.3333 28.3333C17.5 28.3333 17.6528 28.2639 17.7917 28.125Z" fill="white"/>
</g>
</svg>
