<svg width="40" height="40" viewBox="0 0 40 40" fill="none" xmlns="http://www.w3.org/2000/svg">
<g clip-path="url(#clip0_47_140)">
<path d="M26.6667 26.6667C26.6667 24.825 21.4434 23.3334 15.0001 23.3334M26.6667 26.6667C26.6667 28.5084 21.4434 30 15.0001 30C8.55675 30 3.33341 28.5084 3.33341 26.6667M26.6667 26.6667V34.895C26.6667 36.7934 21.4434 38.3334 15.0001 38.3334C8.55675 38.3334 3.33341 36.795 3.33341 34.895V26.6667M26.6667 26.6667C33.0401 26.6667 38.3334 25.0217 38.3334 23.3334V6.66671M15.0001 23.3334C8.55675 23.3334 3.33341 24.825 3.33341 26.6667M15.0001 23.3334C7.63675 23.3334 1.66675 21.6884 1.66675 20V11.6667M15.0001 8.33337C7.63675 8.33337 1.66675 9.82504 1.66675 11.6667M1.66675 11.6667C1.66675 13.5084 7.63675 15 15.0001 15C15.0001 16.6884 20.4217 18.3334 26.7951 18.3334C33.1667 18.3334 38.3334 16.6884 38.3334 15M38.3334 6.66671C38.3334 4.82504 33.1667 3.33337 26.7951 3.33337C20.4217 3.33337 15.2567 4.82504 15.2567 6.66671M38.3334 6.66671C38.3334 8.50837 33.1667 10 26.7951 10C20.4234 10 15.2567 8.50837 15.2567 6.66671M15.2567 6.66671V23.61" stroke="white" stroke-width="4"/>
</g>
<defs>
<clipPath id="clip0_47_140">
<rect width="40" height="40" fill="white"/>
</clipPath>
</defs>
</svg>
