<svg width="32" height="32" viewBox="0 0 32 32" fill="none" xmlns="http://www.w3.org/2000/svg">
<g clip-path="url(#clip0_17_331)">
<path d="M31.5 0.196429C31.8929 0.482143 32.0536 0.863095 31.9821 1.33929L27.4107 28.7679C27.3512 29.1131 27.1607 29.381 26.8393 29.5714C26.6726 29.6667 26.4881 29.7143 26.2857 29.7143C26.1548 29.7143 26.0119 29.6845 25.8571 29.625L17.7679 26.3214L13.4464 31.5893C13.2321 31.8631 12.9405 32 12.5714 32C12.4167 32 12.2857 31.9762 12.1786 31.9286C11.9524 31.8452 11.7708 31.7054 11.6339 31.5089C11.497 31.3125 11.4286 31.0952 11.4286 30.8571V24.625L26.8571 5.71429L7.76786 22.2321L0.714286 19.3393C0.27381 19.1726 0.0357148 18.8452 4.84521e-07 18.3571C-0.023809 17.881 0.166667 17.5298 0.571429 17.3036L30.2857 0.160714C30.4643 0.0535714 30.6548 0 30.8571 0C31.0952 0 31.3095 0.0654762 31.5 0.196429Z" fill="white"/>
</g>
<defs>
<clipPath id="clip0_17_331">
<rect width="32" height="32" fill="white"/>
</clipPath>
</defs>
</svg>
