<svg width="52" height="51" viewBox="0 0 52 51" fill="none" xmlns="http://www.w3.org/2000/svg">
<path d="M34.3207 17.68L43.1582 8.84L41.3907 7.0725L32.5532 15.91L34.3207 17.68ZM30.7832 21.215L29.0157 19.4475L6.03822 42.425L7.80572 44.1925L30.7857 21.2125L30.7832 21.215ZM43.1582 1.77L48.4607 7.07C48.6932 7.30218 48.8776 7.5779 49.0034 7.8814C49.1292 8.18489 49.1939 8.51021 49.1939 8.83875C49.1939 9.16729 49.1292 9.49261 49.0034 9.7961C48.8776 10.0996 48.6932 10.3753 48.4607 10.6075L9.57072 49.5C9.1019 49.9687 8.46613 50.232 7.80322 50.232C7.14031 50.232 6.50454 49.9687 6.03572 49.5L0.733217 44.2C0.500776 43.9678 0.316378 43.6921 0.190567 43.3886C0.0647566 43.0851 0 42.7598 0 42.4312C0 42.1027 0.0647566 41.7774 0.190567 41.4739C0.316378 41.1704 0.500776 40.8947 0.733217 40.6625L39.6232 1.77C40.092 1.30132 40.7278 1.03803 41.3907 1.03803C42.0536 1.03803 42.6894 1.30132 43.1582 1.77ZM20.1782 0L23.6607 1.76L27.2482 0L25.5482 3.65L27.2482 7.07L23.7882 5.41L20.1782 7.07L21.9007 3.52L20.1757 0H20.1782ZM44.9282 17.675L48.4107 19.4375L51.9982 17.6775L50.2982 21.3275L51.9982 24.7475L48.5382 23.0875L44.9257 24.7475L46.6507 21.1975L44.9257 17.6775L44.9282 17.675Z" fill="white"/>
</svg>
