<svg width="30" height="30" viewBox="0 0 30 30" fill="none" xmlns="http://www.w3.org/2000/svg">
<path d="M25.6281 4.36509C24.246 2.97598 22.5998 1.87459 20.7854 1.12517C18.971 0.375741 17.0248 -0.00672017 15.0603 8.93544e-05C6.82914 8.93544e-05 0.120603 6.67509 0.120603 14.8651C0.120603 17.4901 0.81407 20.0401 2.11055 22.2901L0 30.0001L7.91457 27.9301C10.1005 29.1151 12.5578 29.7451 15.0603 29.7451C23.2915 29.7451 30 23.0701 30 14.8801C30 10.9051 28.4472 7.17009 25.6281 4.36509ZM15.0603 27.2251C12.8291 27.2251 10.6432 26.6251 8.72864 25.5001L8.27638 25.2301L3.57286 26.4601L4.82412 21.9001L4.52261 21.4351C3.28303 19.4655 2.62483 17.189 2.62312 14.8651C2.62312 8.05509 8.201 2.50509 15.0452 2.50509C18.3618 2.50509 21.4824 3.79509 23.8191 6.13509C24.9761 7.28103 25.893 8.64408 26.5167 10.1452C27.1403 11.6464 27.4583 13.2558 27.4523 14.8801C27.4824 21.6901 21.9045 27.2251 15.0603 27.2251ZM21.8744 17.9851C21.4975 17.8051 19.6583 16.9051 19.3266 16.7701C18.9799 16.6501 18.7387 16.5901 18.4824 16.9501C18.2261 17.3251 17.5176 18.1651 17.3065 18.4051C17.0955 18.6601 16.8693 18.6901 16.4925 18.4951C16.1156 18.3151 14.9095 17.9101 13.4925 16.6501C12.3769 15.6601 11.6382 14.4451 11.4121 14.0701C11.201 13.6951 11.3819 13.5001 11.5779 13.3051C11.7437 13.1401 11.9548 12.8701 12.1357 12.6601C12.3166 12.4501 12.392 12.2851 12.5126 12.0451C12.6332 11.7901 12.5729 11.5801 12.4824 11.4001C12.392 11.2201 11.6382 9.39009 11.3367 8.64009C11.0352 7.92009 10.7186 8.01009 10.4925 7.99509H9.76884C9.51256 7.99509 9.1206 8.08509 8.77387 8.46009C8.44221 8.83509 7.47739 9.73509 7.47739 11.5651C7.47739 13.3951 8.81909 15.1651 9 15.4051C9.1809 15.6601 11.6382 19.4101 15.3769 21.0151C16.2663 21.4051 16.9598 21.6301 17.5025 21.7951C18.392 22.0801 19.206 22.0351 19.8543 21.9451C20.5779 21.8401 22.0703 21.0451 22.3719 20.1751C22.6884 19.3051 22.6884 18.5701 22.5829 18.4051C22.4774 18.2401 22.2513 18.1651 21.8744 17.9851Z" fill="white"/>
</svg>
